<svg width="179" height="64" viewBox="0 0 179 64" fill="none" xmlns="http://www.w3.org/2000/svg">
<path fill-rule="evenodd" clip-rule="evenodd" d="M38.4742 22.2633L29.7738 24.6239C28.4436 24.9855 18.0842 27.7957 15.7999 35.0353C3.5952 32.3356 2.50404 14 22.6879 14H40.6751C40.2413 16.9905 39.5076 19.746 38.4742 22.2633ZM15.7999 35.0353C31.7789 38.5698 37.6633 24.2387 38.4742 22.2633L49.6867 19.2213C50.0184 21.9478 52.7674 44.5573 33.4862 49.1487C16.4449 53.2068 14.2801 39.8489 15.7999 35.0353Z" fill="#F04406"/>
<path fill-rule="evenodd" clip-rule="evenodd" d="M160.006 45.0294C158.185 45.0294 156.692 44.78 155.525 44.2812C154.359 43.7824 153.491 43.1194 152.922 42.2921C152.353 41.465 152.068 40.5526 152.068 39.5551C152.068 37.8763 152.837 36.5137 154.373 35.4675C155.909 34.4213 158.214 33.8981 161.287 33.8981H166.664V33.4602C166.664 32.2193 166.251 31.3069 165.426 30.723C164.601 30.1391 163.577 29.847 162.354 29.847C161.244 29.847 160.277 30.0721 159.451 30.5222C158.626 30.9723 158.114 31.6354 157.915 32.5113H152.581C152.723 31.1975 153.242 30.0539 154.138 29.0806C155.034 28.1075 156.194 27.3593 157.616 26.8361C159.039 26.3131 160.632 26.0515 162.396 26.0515C165.412 26.0515 167.787 26.6963 169.523 27.9857C171.259 29.2753 172.126 31.1001 172.126 33.4602V44.7204H167.475L166.963 41.6717C166.337 42.645 165.462 43.4479 164.338 44.0805C163.214 44.7131 161.77 45.0294 160.006 45.0294ZM161.244 41.3797C162.809 41.3797 164.025 40.9418 164.893 40.0659C165.76 39.1901 166.308 38.1072 166.536 36.8178H161.884C160.433 36.8178 159.394 37.0428 158.769 37.4931C158.143 37.9432 157.83 38.4966 157.83 39.1534C157.83 39.8591 158.143 40.4066 158.769 40.7958C159.394 41.1852 160.22 41.3797 161.244 41.3797Z" fill="#F04406"/>
<path fill-rule="evenodd" clip-rule="evenodd" d="M135.851 44.9464C134.031 44.9464 132.537 44.697 131.37 44.1982C130.204 43.6994 129.336 43.0364 128.767 42.2091C128.198 41.382 127.914 40.4696 127.914 39.472C127.914 37.7932 128.682 36.4307 130.218 35.3845C131.755 34.3383 134.059 33.8151 137.132 33.8151H142.509V33.3772C142.509 32.1363 142.096 31.2239 141.271 30.64C140.446 30.056 139.422 29.764 138.199 29.764C137.089 29.764 136.122 29.9891 135.297 30.4392C134.472 30.8893 133.959 31.5524 133.76 32.4283H128.426C128.568 31.1145 129.087 29.9709 129.983 28.9976C130.88 28.0245 132.039 27.2763 133.462 26.7531C134.884 26.2301 136.477 25.9685 138.241 25.9685C141.257 25.9685 143.633 26.6133 145.368 27.9027C147.104 29.1923 147.971 31.0171 147.971 33.3772V44.6374H143.32L142.808 41.5887C142.182 42.562 141.307 43.3649 140.183 43.9975C139.059 44.6301 137.615 44.9464 135.851 44.9464ZM137.089 41.2967C138.654 41.2967 139.87 40.8588 140.738 39.9829C141.606 39.1071 142.153 38.0242 142.381 36.7348H137.729C136.278 36.7348 135.24 36.9598 134.614 37.41C133.988 37.8601 133.675 38.4136 133.675 39.0704C133.675 39.7761 133.988 40.3236 134.614 40.7128C135.24 41.1022 136.065 41.2967 137.089 41.2967Z" fill="#F04406"/>
<path fill-rule="evenodd" clip-rule="evenodd" d="M112.479 44.7203V26.3264H117.344L117.856 30.1284C118.625 28.9696 119.67 28.0463 120.993 27.3584C122.316 26.6704 123.874 26.3264 125.666 26.3264V31.2146H124.13C122.935 31.2146 121.868 31.3714 120.929 31.6852C119.99 31.999 119.257 32.5422 118.731 33.3146C118.205 34.0871 117.942 35.1613 117.942 36.5371V44.7203H112.479Z" fill="#F04406"/>
<path fill-rule="evenodd" clip-rule="evenodd" d="M96.2624 45.0294C94.4415 45.0294 92.9478 44.78 91.7813 44.2812C90.6148 43.7824 89.747 43.1194 89.178 42.2921C88.609 41.465 88.3245 40.5526 88.3245 39.5551C88.3245 37.8763 89.0927 36.5137 90.6291 35.4675C92.1654 34.4213 94.4698 33.8981 97.5427 33.8981H102.92V33.4602C102.92 32.2193 102.507 31.3069 101.682 30.723C100.857 30.1391 99.8328 29.847 98.6094 29.847C97.4998 29.847 96.5327 30.0721 95.7075 30.5222C94.8825 30.9723 94.3703 31.6354 94.1711 32.5113H88.8367C88.9789 31.1975 89.4982 30.0539 90.3944 29.0806C91.2905 28.1075 92.4498 27.3593 93.8725 26.8361C95.295 26.3131 96.8882 26.0515 98.6522 26.0515C101.668 26.0515 104.044 26.6963 105.779 27.9857C107.515 29.2753 108.382 31.1001 108.382 33.4602V44.7204H103.771L103.219 41.6717C102.593 42.645 101.718 43.4479 100.594 44.0805C99.4702 44.7131 98.0262 45.0294 96.2624 45.0294ZM97.4998 41.3797C99.0647 41.3797 100.281 40.9418 101.149 40.0659C102.017 39.1901 102.564 38.1072 102.792 36.8178H98.14C96.6891 36.8178 95.6506 37.0428 95.0247 37.4931C94.3988 37.9432 94.0859 38.4966 94.0859 39.1534C94.0859 39.8591 94.3988 40.4066 95.0247 40.7958C95.6506 41.1852 96.4758 41.3797 97.4998 41.3797Z" fill="#F04406"/>
<path fill-rule="evenodd" clip-rule="evenodd" d="M60.5564 44.7204V19.3193H70.7561C74.2555 19.3193 77.1361 19.8455 79.3981 20.8979C81.6598 21.9503 83.3386 23.4259 84.4339 25.3249C85.5291 27.224 86.0768 29.4556 86.0768 32.0199C86.0768 34.5841 85.5291 36.8158 84.4339 38.7148C83.3386 40.6138 81.6598 42.0895 79.3981 43.1418C77.1361 44.1942 74.2555 44.7204 70.7561 44.7204H60.5564ZM66.0189 40.7288H70.5C73.0038 40.7288 74.9809 40.384 76.432 39.6947C77.8831 39.0052 78.9214 38.0133 79.5473 36.719C80.1734 35.4248 80.4863 33.8584 80.4863 32.0199C80.4863 30.2055 80.1734 28.6452 79.5473 27.3389C78.9214 26.0326 77.8831 25.0286 76.432 24.3269C74.9809 23.6255 73.0038 23.2747 70.5 23.2747H66.0189V40.7288Z" fill="#F04406"/>
</svg>
